<mxfile host="Electron" modified="2024-03-13T12:27:34.088Z" agent="Mozilla/5.0 (Macintosh; Intel Mac OS X 10_15_7) AppleWebKit/537.36 (KHTML, like Gecko) draw.io/24.0.4 Chrome/120.0.6099.109 Electron/28.1.0 Safari/537.36" etag="y07a6agr-atJkp6mn17C" version="24.0.4" type="device">
  <diagram name="OOP Concept" id="FPjwjDiXzvvwkR_oN2_-">
    <mxGraphModel dx="5736" dy="4828" grid="0" gridSize="10" guides="1" tooltips="1" connect="1" arrows="1" fold="1" page="0" pageScale="1" pageWidth="850" pageHeight="1100" math="0" shadow="0">
      <root>
        <mxCell id="0" />
        <mxCell id="1" parent="0" />
        <mxCell id="YzlUCKDvJ0SM6VqGRy29-1" style="edgeStyle=orthogonalEdgeStyle;rounded=0;orthogonalLoop=1;jettySize=auto;html=1;" parent="1" source="YzlUCKDvJ0SM6VqGRy29-2" target="YzlUCKDvJ0SM6VqGRy29-3" edge="1">
          <mxGeometry relative="1" as="geometry" />
        </mxCell>
        <UserObject label="&lt;p style=&quot;line-height: 260%;&quot;&gt;&lt;b&gt;&lt;font data-font-src=&quot;https://fonts.googleapis.com/css?family=Roboto&quot; face=&quot;Roboto&quot; style=&quot;font-size: 18px;&quot;&gt;Low Level Design&lt;/font&gt;&lt;/b&gt;&lt;/p&gt;" link="https://github.com/SanjeetDutt/NOTES/blob/master/draw_io/DataStructureAndAlgo.drawio" linkTarget="_blank" id="YzlUCKDvJ0SM6VqGRy29-2">
          <mxCell style="rounded=1;whiteSpace=wrap;html=1;fillColor=#d5e8d4;strokeColor=none;shadow=1;treeFolding=1;editable=1;movable=1;resizable=1;rotatable=1;deletable=1;locked=0;connectable=1;" parent="1" vertex="1">
            <mxGeometry x="117" y="225" width="197" height="94" as="geometry" />
          </mxCell>
        </UserObject>
        <mxCell id="YzlUCKDvJ0SM6VqGRy29-5" style="edgeStyle=orthogonalEdgeStyle;rounded=0;orthogonalLoop=1;jettySize=auto;html=1;entryX=0;entryY=0.5;entryDx=0;entryDy=0;" parent="1" source="YzlUCKDvJ0SM6VqGRy29-3" target="YzlUCKDvJ0SM6VqGRy29-4" edge="1">
          <mxGeometry relative="1" as="geometry" />
        </mxCell>
        <mxCell id="YzlUCKDvJ0SM6VqGRy29-15" style="edgeStyle=orthogonalEdgeStyle;rounded=0;orthogonalLoop=1;jettySize=auto;html=1;" parent="1" source="YzlUCKDvJ0SM6VqGRy29-3" target="YzlUCKDvJ0SM6VqGRy29-13" edge="1">
          <mxGeometry relative="1" as="geometry">
            <Array as="points">
              <mxPoint x="541" y="272" />
              <mxPoint x="541" y="62" />
            </Array>
          </mxGeometry>
        </mxCell>
        <mxCell id="YzlUCKDvJ0SM6VqGRy29-19" style="edgeStyle=orthogonalEdgeStyle;rounded=0;orthogonalLoop=1;jettySize=auto;html=1;" parent="1" source="YzlUCKDvJ0SM6VqGRy29-3" target="YzlUCKDvJ0SM6VqGRy29-18" edge="1">
          <mxGeometry relative="1" as="geometry" />
        </mxCell>
        <mxCell id="YzlUCKDvJ0SM6VqGRy29-3" value="&lt;p style=&quot;line-height: 142%;&quot;&gt;&lt;font data-font-src=&quot;https://fonts.googleapis.com/css?family=Roboto&quot; face=&quot;Roboto&quot; style=&quot;&quot;&gt;&lt;span style=&quot;font-size: 15px;&quot;&gt;&lt;b&gt;Object Oriented&amp;nbsp;&lt;/b&gt;&lt;/span&gt;&lt;/font&gt;&lt;/p&gt;&lt;font face=&quot;Roboto&quot;&gt;&lt;span style=&quot;font-size: 15px;&quot;&gt;&lt;b&gt;Programming&lt;/b&gt;&lt;/span&gt;&lt;/font&gt;" style="rounded=1;whiteSpace=wrap;html=1;fillColor=#dae8fc;strokeColor=none;shadow=1;treeFolding=0;movable=1;resizable=1;rotatable=1;deletable=1;editable=1;locked=0;connectable=1;expand=1;recursiveResize=1;" parent="1" vertex="1">
          <mxGeometry x="365" y="225" width="129" height="94" as="geometry" />
        </mxCell>
        <mxCell id="YzlUCKDvJ0SM6VqGRy29-12" value="" style="group" parent="1" vertex="1" connectable="0">
          <mxGeometry x="547" y="-154" width="382" height="142" as="geometry" />
        </mxCell>
        <mxCell id="YzlUCKDvJ0SM6VqGRy29-4" value="&lt;p style=&quot;line-height: 142%;&quot;&gt;programming&amp;nbsp;&lt;br&gt;&lt;span style=&quot;background-color: initial;&quot;&gt;paradigm&lt;/span&gt;&lt;/p&gt;" style="rounded=1;whiteSpace=wrap;html=1;fillColor=#dae8fc;strokeColor=none;shadow=1;treeFolding=0;movable=1;resizable=1;rotatable=1;deletable=1;editable=1;locked=0;connectable=1;" parent="YzlUCKDvJ0SM6VqGRy29-12" vertex="1">
          <mxGeometry y="22" width="129" height="94" as="geometry" />
        </mxCell>
        <mxCell id="YzlUCKDvJ0SM6VqGRy29-6" value="Procedural programming" style="text;html=1;align=center;verticalAlign=middle;resizable=0;points=[];autosize=1;strokeColor=#666666;fillColor=none;fontColor=#333333;" parent="YzlUCKDvJ0SM6VqGRy29-12" vertex="1">
          <mxGeometry x="206" width="150" height="26" as="geometry" />
        </mxCell>
        <mxCell id="YzlUCKDvJ0SM6VqGRy29-7" value="Object Oriented Programming" style="text;html=1;align=center;verticalAlign=middle;resizable=0;points=[];autosize=1;strokeColor=#666666;fillColor=none;fontColor=#333333;" parent="YzlUCKDvJ0SM6VqGRy29-12" vertex="1">
          <mxGeometry x="205" y="61" width="177" height="26" as="geometry" />
        </mxCell>
        <mxCell id="YzlUCKDvJ0SM6VqGRy29-8" value="Functional Programming" style="text;html=1;align=center;verticalAlign=middle;resizable=0;points=[];autosize=1;strokeColor=#666666;fillColor=none;fontColor=#333333;" parent="YzlUCKDvJ0SM6VqGRy29-12" vertex="1">
          <mxGeometry x="206" y="116" width="149" height="26" as="geometry" />
        </mxCell>
        <mxCell id="YzlUCKDvJ0SM6VqGRy29-10" style="edgeStyle=orthogonalEdgeStyle;rounded=0;orthogonalLoop=1;jettySize=auto;html=1;" parent="YzlUCKDvJ0SM6VqGRy29-12" source="YzlUCKDvJ0SM6VqGRy29-4" target="YzlUCKDvJ0SM6VqGRy29-7" edge="1">
          <mxGeometry relative="1" as="geometry" />
        </mxCell>
        <mxCell id="YzlUCKDvJ0SM6VqGRy29-9" style="edgeStyle=orthogonalEdgeStyle;rounded=0;orthogonalLoop=1;jettySize=auto;html=1;entryX=-0.007;entryY=0.5;entryDx=0;entryDy=0;entryPerimeter=0;" parent="YzlUCKDvJ0SM6VqGRy29-12" source="YzlUCKDvJ0SM6VqGRy29-4" target="YzlUCKDvJ0SM6VqGRy29-6" edge="1">
          <mxGeometry relative="1" as="geometry" />
        </mxCell>
        <mxCell id="YzlUCKDvJ0SM6VqGRy29-11" style="edgeStyle=orthogonalEdgeStyle;rounded=0;orthogonalLoop=1;jettySize=auto;html=1;entryX=0.02;entryY=0.385;entryDx=0;entryDy=0;entryPerimeter=0;" parent="YzlUCKDvJ0SM6VqGRy29-12" source="YzlUCKDvJ0SM6VqGRy29-4" target="YzlUCKDvJ0SM6VqGRy29-8" edge="1">
          <mxGeometry relative="1" as="geometry" />
        </mxCell>
        <mxCell id="YzlUCKDvJ0SM6VqGRy29-13" value="Entities" style="swimlane;whiteSpace=wrap;html=1;fillColor=#b1ddf0;strokeColor=#10739e;" parent="1" vertex="1">
          <mxGeometry x="556" y="-2" width="254" height="129" as="geometry" />
        </mxCell>
        <mxCell id="YzlUCKDvJ0SM6VqGRy29-14" value="&lt;div style=&quot;text-align: left;&quot;&gt;&lt;span style=&quot;background-color: initial;&quot;&gt;Entities will have following 2 thinkgs&lt;/span&gt;&lt;/div&gt;&lt;div style=&quot;text-align: left;&quot;&gt;&lt;span style=&quot;background-color: initial;&quot;&gt;1. Properties&lt;/span&gt;&lt;/div&gt;&lt;div style=&quot;text-align: left;&quot;&gt;&lt;span style=&quot;background-color: initial;&quot;&gt;&lt;span style=&quot;white-space: pre;&quot;&gt;&#x9;&lt;/span&gt;Like Id, name, age&lt;br&gt;&lt;/span&gt;&lt;/div&gt;&lt;div style=&quot;text-align: left;&quot;&gt;&lt;span style=&quot;background-color: initial;&quot;&gt;2. Behaviours&lt;/span&gt;&lt;/div&gt;&lt;div style=&quot;text-align: left;&quot;&gt;&lt;span style=&quot;background-color: initial;&quot;&gt;&lt;span style=&quot;white-space: pre;&quot;&gt;&#x9;&lt;/span&gt;like fly(), rateClass(), etc.&lt;br&gt;&lt;/span&gt;&lt;/div&gt;" style="text;html=1;align=center;verticalAlign=middle;resizable=0;points=[];autosize=1;strokeColor=none;fillColor=none;" parent="YzlUCKDvJ0SM6VqGRy29-13" vertex="1">
          <mxGeometry x="7" y="30" width="208" height="84" as="geometry" />
        </mxCell>
        <mxCell id="YzlUCKDvJ0SM6VqGRy29-24" style="edgeStyle=orthogonalEdgeStyle;rounded=0;orthogonalLoop=1;jettySize=auto;html=1;" parent="1" source="YzlUCKDvJ0SM6VqGRy29-18" target="YzlUCKDvJ0SM6VqGRy29-20" edge="1">
          <mxGeometry relative="1" as="geometry">
            <Array as="points">
              <mxPoint x="754" y="272" />
              <mxPoint x="754" y="206" />
            </Array>
          </mxGeometry>
        </mxCell>
        <mxCell id="YzlUCKDvJ0SM6VqGRy29-25" style="edgeStyle=orthogonalEdgeStyle;rounded=0;orthogonalLoop=1;jettySize=auto;html=1;" parent="1" source="YzlUCKDvJ0SM6VqGRy29-18" target="YzlUCKDvJ0SM6VqGRy29-21" edge="1">
          <mxGeometry relative="1" as="geometry" />
        </mxCell>
        <mxCell id="YzlUCKDvJ0SM6VqGRy29-26" style="edgeStyle=orthogonalEdgeStyle;rounded=0;orthogonalLoop=1;jettySize=auto;html=1;" parent="1" source="YzlUCKDvJ0SM6VqGRy29-18" target="YzlUCKDvJ0SM6VqGRy29-22" edge="1">
          <mxGeometry relative="1" as="geometry" />
        </mxCell>
        <mxCell id="YzlUCKDvJ0SM6VqGRy29-27" style="edgeStyle=orthogonalEdgeStyle;rounded=0;orthogonalLoop=1;jettySize=auto;html=1;entryX=0;entryY=0.5;entryDx=0;entryDy=0;" parent="1" source="YzlUCKDvJ0SM6VqGRy29-18" target="YzlUCKDvJ0SM6VqGRy29-23" edge="1">
          <mxGeometry relative="1" as="geometry" />
        </mxCell>
        <mxCell id="YzlUCKDvJ0SM6VqGRy29-18" value="&lt;font face=&quot;Roboto&quot;&gt;&lt;span style=&quot;font-size: 15px;&quot;&gt;&lt;b&gt;Principle&lt;/b&gt;&lt;/span&gt;&lt;/font&gt;&lt;p style=&quot;line-height: 142%;&quot;&gt;&lt;b&gt;&lt;font data-font-src=&quot;https://fonts.googleapis.com/css?family=Roboto&quot; face=&quot;Roboto&quot; style=&quot;font-size: 15px;&quot;&gt;&amp;nbsp;of OOPS&lt;/font&gt;&lt;/b&gt;&lt;/p&gt;" style="rounded=1;whiteSpace=wrap;html=1;fillColor=#dae8fc;strokeColor=none;shadow=1;treeFolding=0;movable=1;resizable=1;rotatable=1;deletable=1;editable=1;locked=0;connectable=1;" parent="1" vertex="1">
          <mxGeometry x="589" y="225" width="129" height="94" as="geometry" />
        </mxCell>
        <mxCell id="YzlUCKDvJ0SM6VqGRy29-20" value="&lt;p style=&quot;line-height: 142%;&quot;&gt;&lt;font data-font-src=&quot;https://fonts.googleapis.com/css?family=Roboto&quot; face=&quot;Roboto&quot; style=&quot;font-size: 15px;&quot;&gt;Abstration&lt;/font&gt;&lt;/p&gt;" style="rounded=1;whiteSpace=wrap;html=1;shadow=1;treeFolding=1;movable=1;resizable=1;rotatable=1;deletable=1;editable=1;locked=0;connectable=1;strokeColor=none;fillColor=#CCFFFF;" parent="1" vertex="1">
          <mxGeometry x="904" y="186" width="129" height="39" as="geometry" />
        </mxCell>
        <mxCell id="YzlUCKDvJ0SM6VqGRy29-21" value="&lt;p style=&quot;line-height: 142%;&quot;&gt;&lt;font data-font-src=&quot;https://fonts.googleapis.com/css?family=Roboto&quot; face=&quot;Roboto&quot; style=&quot;font-size: 15px;&quot;&gt;Encapsulation&lt;/font&gt;&lt;/p&gt;" style="rounded=1;whiteSpace=wrap;html=1;shadow=1;treeFolding=1;movable=1;resizable=1;rotatable=1;deletable=1;editable=1;locked=0;connectable=1;strokeColor=none;fillColor=#CCFFFF;" parent="1" vertex="1">
          <mxGeometry x="787" y="252.5" width="129" height="39" as="geometry" />
        </mxCell>
        <mxCell id="YzlUCKDvJ0SM6VqGRy29-22" value="&lt;p style=&quot;line-height: 142%;&quot;&gt;&lt;font data-font-src=&quot;https://fonts.googleapis.com/css?family=Roboto&quot; face=&quot;Roboto&quot; style=&quot;font-size: 15px;&quot;&gt;Polymorphism&lt;/font&gt;&lt;/p&gt;" style="rounded=1;whiteSpace=wrap;html=1;shadow=1;treeFolding=1;movable=1;resizable=1;rotatable=1;deletable=1;editable=1;locked=0;connectable=1;strokeColor=none;fillColor=#CCFFFF;" parent="1" vertex="1">
          <mxGeometry x="789" y="317" width="129" height="39" as="geometry" />
        </mxCell>
        <mxCell id="YzlUCKDvJ0SM6VqGRy29-23" value="&lt;p style=&quot;line-height: 142%;&quot;&gt;&lt;font data-font-src=&quot;https://fonts.googleapis.com/css?family=Roboto&quot; face=&quot;Roboto&quot; style=&quot;font-size: 15px;&quot;&gt;Inheritance&lt;/font&gt;&lt;/p&gt;" style="rounded=1;whiteSpace=wrap;html=1;shadow=1;treeFolding=1;movable=1;resizable=1;rotatable=1;deletable=1;editable=1;locked=0;connectable=1;strokeColor=none;fillColor=#CCFFFF;" parent="1" vertex="1">
          <mxGeometry x="789" y="380" width="129" height="39" as="geometry" />
        </mxCell>
        <mxCell id="YzlUCKDvJ0SM6VqGRy29-28" value="" style="endArrow=classic;startArrow=classic;html=1;rounded=0;" parent="1" edge="1">
          <mxGeometry width="50" height="50" relative="1" as="geometry">
            <mxPoint x="932" y="408" as="sourcePoint" />
            <mxPoint x="934" y="270" as="targetPoint" />
          </mxGeometry>
        </mxCell>
        <mxCell id="YzlUCKDvJ0SM6VqGRy29-29" value="&lt;b&gt;3 Pillars&amp;nbsp;&lt;/b&gt;" style="ellipse;shape=cloud;whiteSpace=wrap;html=1;fillColor=#f8cecc;strokeColor=#b85450;" parent="1" vertex="1">
          <mxGeometry x="928.9999999999995" y="300" width="120" height="80" as="geometry" />
        </mxCell>
        <mxCell id="YzlUCKDvJ0SM6VqGRy29-30" value="* These somehow help to archive Abstraction" style="text;html=1;align=center;verticalAlign=middle;resizable=0;points=[];autosize=1;strokeColor=none;fillColor=none;" parent="1" vertex="1">
          <mxGeometry x="950" y="380" width="258" height="26" as="geometry" />
        </mxCell>
        <mxCell id="YzlUCKDvJ0SM6VqGRy29-31" value="Abstraction" style="swimlane;whiteSpace=wrap;html=1;fillColor=#b1ddf0;strokeColor=#10739e;" parent="1" vertex="1">
          <mxGeometry x="80" y="557" width="646" height="189" as="geometry" />
        </mxCell>
        <mxCell id="YzlUCKDvJ0SM6VqGRy29-32" value="Base meaning : The quality of dealing with ideas rather than events" style="text;html=1;align=center;verticalAlign=middle;resizable=0;points=[];autosize=1;strokeColor=none;fillColor=none;" parent="YzlUCKDvJ0SM6VqGRy29-31" vertex="1">
          <mxGeometry x="12" y="37" width="375" height="26" as="geometry" />
        </mxCell>
        <mxCell id="YzlUCKDvJ0SM6VqGRy29-33" value="In software engineering and computer science, abstraction is the process of &lt;b&gt;generalising&lt;/b&gt; &lt;b&gt;concrete&lt;/b&gt; details, &lt;br&gt;such as attributes, away from the study of objects and systems to &lt;b&gt;focus&lt;/b&gt; &lt;b&gt;attention&lt;/b&gt; &lt;b&gt;on&lt;/b&gt; &lt;b&gt;details&lt;/b&gt; of greater importance." style="text;html=1;align=left;verticalAlign=middle;resizable=0;points=[];autosize=1;strokeColor=none;fillColor=none;" parent="YzlUCKDvJ0SM6VqGRy29-31" vertex="1">
          <mxGeometry x="12" y="59" width="634" height="41" as="geometry" />
        </mxCell>
        <mxCell id="YzlUCKDvJ0SM6VqGRy29-34" value="The whole combination can be break into two parts&lt;br&gt;1. Breaking complex system into simple entities.&lt;br&gt;2. Other does not need to know the details. Focus on the generalisation rather than details." style="text;html=1;align=left;verticalAlign=middle;resizable=0;points=[];autosize=1;strokeColor=none;fillColor=none;" parent="YzlUCKDvJ0SM6VqGRy29-31" vertex="1">
          <mxGeometry x="12" y="112" width="500" height="55" as="geometry" />
        </mxCell>
        <mxCell id="YzlUCKDvJ0SM6VqGRy29-35" value="Encapsulation" style="swimlane;whiteSpace=wrap;html=1;fillColor=#b1ddf0;strokeColor=#10739e;" parent="1" vertex="1">
          <mxGeometry x="798" y="557" width="374" height="289" as="geometry" />
        </mxCell>
        <mxCell id="YzlUCKDvJ0SM6VqGRy29-54" value="" style="group" parent="YzlUCKDvJ0SM6VqGRy29-35" vertex="1" connectable="0">
          <mxGeometry x="12" y="46" width="160" height="135" as="geometry" />
        </mxCell>
        <mxCell id="YzlUCKDvJ0SM6VqGRy29-51" value="" style="group" parent="YzlUCKDvJ0SM6VqGRy29-54" vertex="1" connectable="0">
          <mxGeometry x="14" width="120" height="91" as="geometry" />
        </mxCell>
        <mxCell id="YzlUCKDvJ0SM6VqGRy29-36" value="" style="rounded=1;whiteSpace=wrap;html=1;" parent="YzlUCKDvJ0SM6VqGRy29-51" vertex="1">
          <mxGeometry width="120" height="60" as="geometry" />
        </mxCell>
        <mxCell id="YzlUCKDvJ0SM6VqGRy29-37" value="Capsule" style="text;html=1;align=center;verticalAlign=middle;resizable=0;points=[];autosize=1;strokeColor=none;fillColor=none;" parent="YzlUCKDvJ0SM6VqGRy29-51" vertex="1">
          <mxGeometry x="29" y="65" width="62" height="26" as="geometry" />
        </mxCell>
        <mxCell id="YzlUCKDvJ0SM6VqGRy29-38" value="" style="ellipse;whiteSpace=wrap;html=1;aspect=fixed;fillColor=#f8cecc;strokeColor=#b85450;" parent="YzlUCKDvJ0SM6VqGRy29-51" vertex="1">
          <mxGeometry x="12" y="7" width="20" height="20" as="geometry" />
        </mxCell>
        <mxCell id="YzlUCKDvJ0SM6VqGRy29-39" value="" style="ellipse;whiteSpace=wrap;html=1;aspect=fixed;fillColor=#dae8fc;strokeColor=#6c8ebf;" parent="YzlUCKDvJ0SM6VqGRy29-51" vertex="1">
          <mxGeometry x="39" y="7" width="11" height="11" as="geometry" />
        </mxCell>
        <mxCell id="YzlUCKDvJ0SM6VqGRy29-40" value="" style="ellipse;whiteSpace=wrap;html=1;aspect=fixed;fillColor=#fff2cc;strokeColor=#d6b656;" parent="YzlUCKDvJ0SM6VqGRy29-51" vertex="1">
          <mxGeometry x="32" y="22" width="13" height="13" as="geometry" />
        </mxCell>
        <mxCell id="YzlUCKDvJ0SM6VqGRy29-41" value="" style="ellipse;whiteSpace=wrap;html=1;aspect=fixed;fillColor=#f8cecc;strokeColor=#b85450;" parent="YzlUCKDvJ0SM6VqGRy29-51" vertex="1">
          <mxGeometry x="48" y="22" width="20" height="20" as="geometry" />
        </mxCell>
        <mxCell id="YzlUCKDvJ0SM6VqGRy29-42" value="" style="ellipse;whiteSpace=wrap;html=1;aspect=fixed;fillColor=#dae8fc;strokeColor=#6c8ebf;" parent="YzlUCKDvJ0SM6VqGRy29-51" vertex="1">
          <mxGeometry x="75" y="22" width="11" height="11" as="geometry" />
        </mxCell>
        <mxCell id="YzlUCKDvJ0SM6VqGRy29-43" value="" style="ellipse;whiteSpace=wrap;html=1;aspect=fixed;fillColor=#fff2cc;strokeColor=#d6b656;" parent="YzlUCKDvJ0SM6VqGRy29-51" vertex="1">
          <mxGeometry x="68" y="37" width="13" height="13" as="geometry" />
        </mxCell>
        <mxCell id="YzlUCKDvJ0SM6VqGRy29-44" value="" style="ellipse;whiteSpace=wrap;html=1;aspect=fixed;fillColor=#f8cecc;strokeColor=#b85450;" parent="YzlUCKDvJ0SM6VqGRy29-51" vertex="1">
          <mxGeometry x="75" y="5" width="20" height="20" as="geometry" />
        </mxCell>
        <mxCell id="YzlUCKDvJ0SM6VqGRy29-45" value="" style="ellipse;whiteSpace=wrap;html=1;aspect=fixed;fillColor=#dae8fc;strokeColor=#6c8ebf;" parent="YzlUCKDvJ0SM6VqGRy29-51" vertex="1">
          <mxGeometry x="102" y="5" width="11" height="11" as="geometry" />
        </mxCell>
        <mxCell id="YzlUCKDvJ0SM6VqGRy29-46" value="" style="ellipse;whiteSpace=wrap;html=1;aspect=fixed;fillColor=#fff2cc;strokeColor=#d6b656;" parent="YzlUCKDvJ0SM6VqGRy29-51" vertex="1">
          <mxGeometry x="95" y="20" width="13" height="13" as="geometry" />
        </mxCell>
        <mxCell id="YzlUCKDvJ0SM6VqGRy29-47" value="" style="ellipse;whiteSpace=wrap;html=1;aspect=fixed;fillColor=#f8cecc;strokeColor=#b85450;" parent="YzlUCKDvJ0SM6VqGRy29-51" vertex="1">
          <mxGeometry x="86" y="37" width="20" height="20" as="geometry" />
        </mxCell>
        <mxCell id="YzlUCKDvJ0SM6VqGRy29-48" value="" style="ellipse;whiteSpace=wrap;html=1;aspect=fixed;fillColor=#dae8fc;strokeColor=#6c8ebf;" parent="YzlUCKDvJ0SM6VqGRy29-51" vertex="1">
          <mxGeometry x="28" y="39" width="11" height="11" as="geometry" />
        </mxCell>
        <mxCell id="YzlUCKDvJ0SM6VqGRy29-49" value="" style="ellipse;whiteSpace=wrap;html=1;aspect=fixed;fillColor=#fff2cc;strokeColor=#d6b656;" parent="YzlUCKDvJ0SM6VqGRy29-51" vertex="1">
          <mxGeometry x="58" y="6" width="13" height="13" as="geometry" />
        </mxCell>
        <mxCell id="YzlUCKDvJ0SM6VqGRy29-53" value="&lt;div style=&quot;text-align: left;&quot;&gt;&lt;span style=&quot;background-color: initial;&quot;&gt;Capsule do following&lt;/span&gt;&lt;/div&gt;&lt;div style=&quot;text-align: left;&quot;&gt;&lt;span style=&quot;background-color: initial;&quot;&gt;1. Binds medicine together&lt;/span&gt;&lt;/div&gt;&lt;div style=&quot;text-align: left;&quot;&gt;&lt;span style=&quot;background-color: initial;&quot;&gt;2. Protect medicine&lt;/span&gt;&lt;/div&gt;" style="text;html=1;align=center;verticalAlign=middle;resizable=0;points=[];autosize=1;strokeColor=none;fillColor=none;" parent="YzlUCKDvJ0SM6VqGRy29-54" vertex="1">
          <mxGeometry y="80" width="160" height="55" as="geometry" />
        </mxCell>
        <mxCell id="YzlUCKDvJ0SM6VqGRy29-55" value="In computation, encapsulation&lt;br&gt;1. Bind / store the attributes and behaviours together =&amp;gt; Class&lt;br&gt;2. Protect from outer world =&amp;gt; Access Modifier" style="text;html=1;align=left;verticalAlign=middle;resizable=0;points=[];autosize=1;strokeColor=none;fillColor=none;" parent="YzlUCKDvJ0SM6VqGRy29-35" vertex="1">
          <mxGeometry x="26" y="199" width="348" height="55" as="geometry" />
        </mxCell>
        <mxCell id="YzlUCKDvJ0SM6VqGRy29-65" style="edgeStyle=orthogonalEdgeStyle;rounded=0;orthogonalLoop=1;jettySize=auto;html=1;" parent="1" source="YzlUCKDvJ0SM6VqGRy29-58" target="YzlUCKDvJ0SM6VqGRy29-64" edge="1">
          <mxGeometry relative="1" as="geometry" />
        </mxCell>
        <mxCell id="YzlUCKDvJ0SM6VqGRy29-69" style="edgeStyle=orthogonalEdgeStyle;rounded=0;orthogonalLoop=1;jettySize=auto;html=1;" parent="1" source="YzlUCKDvJ0SM6VqGRy29-58" target="YzlUCKDvJ0SM6VqGRy29-68" edge="1">
          <mxGeometry relative="1" as="geometry">
            <Array as="points">
              <mxPoint x="1763" y="-347" />
              <mxPoint x="2088" y="-347" />
            </Array>
          </mxGeometry>
        </mxCell>
        <mxCell id="YzlUCKDvJ0SM6VqGRy29-58" value="Class" style="swimlane;whiteSpace=wrap;html=1;fillColor=#fad9d5;strokeColor=#ae4132;" parent="1" vertex="1">
          <mxGeometry x="1597" y="-858" width="332" height="504" as="geometry" />
        </mxCell>
        <mxCell id="YzlUCKDvJ0SM6VqGRy29-59" value="Blue print of the entity (Will have attributes and behaviour)" style="text;html=1;align=left;verticalAlign=middle;resizable=0;points=[];autosize=1;strokeColor=none;fillColor=none;" parent="YzlUCKDvJ0SM6VqGRy29-58" vertex="1">
          <mxGeometry x="6" y="31" width="326" height="26" as="geometry" />
        </mxCell>
        <mxCell id="YzlUCKDvJ0SM6VqGRy29-60" value="Example :&lt;br&gt;Class Student {&lt;br&gt;&lt;span style=&quot;white-space: pre;&quot;&gt;&#x9;&lt;/span&gt;String name;&lt;br&gt;&lt;span style=&quot;white-space: pre;&quot;&gt;&#x9;&lt;/span&gt;int age;&lt;br&gt;&lt;span style=&quot;white-space: pre;&quot;&gt;&#x9;&lt;/span&gt;String batch;&lt;br&gt;&lt;span style=&quot;white-space: pre;&quot;&gt;&#x9;&lt;/span&gt;double psp;&lt;br&gt;&lt;br&gt;&lt;span style=&quot;white-space: pre;&quot;&gt;&#x9;&lt;/span&gt;void attendClass(){...}&lt;br&gt;&lt;span style=&quot;white-space: pre;&quot;&gt;&#x9;&lt;/span&gt;&lt;br&gt;&lt;span style=&quot;white-space: pre;&quot;&gt;&#x9;&lt;/span&gt;int rateClass(){...}&lt;br&gt;}" style="text;html=1;align=left;verticalAlign=middle;resizable=0;points=[];autosize=1;strokeColor=#6c8ebf;fillColor=#dae8fc;" parent="YzlUCKDvJ0SM6VqGRy29-58" vertex="1">
          <mxGeometry x="80" y="67" width="159" height="170" as="geometry" />
        </mxCell>
        <mxCell id="YzlUCKDvJ0SM6VqGRy29-61" value="To come into existence, we need to initial the object&lt;br&gt;&lt;br&gt;&lt;b&gt;&lt;u&gt;new&lt;/u&gt;&lt;/b&gt; Student() &lt;br&gt;&lt;span style=&quot;white-space: pre;&quot;&gt;&#x9;&lt;/span&gt;&amp;lt;= New Keyword&lt;br&gt;&lt;span style=&quot;white-space: pre;&quot;&gt;&#x9;&lt;/span&gt;&amp;lt;= () stands for constructor&lt;br&gt;&lt;br&gt;After coming into existence (a memory is allocated),&lt;br&gt;we need to store it in the variable like&lt;br&gt;&lt;br&gt;Student sanjeet = new Student();&lt;br&gt;&lt;br&gt;# &lt;b&gt;Class&lt;/b&gt; are also consider as &lt;b&gt;custom data type&amp;nbsp;&lt;/b&gt;&lt;br&gt;# &lt;b&gt;Variable&lt;/b&gt; store the &lt;b&gt;address of the memory&lt;/b&gt; which is &lt;br&gt;&amp;nbsp; &amp;nbsp;allocated to the object" style="text;html=1;align=left;verticalAlign=middle;resizable=0;points=[];autosize=1;strokeColor=none;fillColor=none;" parent="YzlUCKDvJ0SM6VqGRy29-58" vertex="1">
          <mxGeometry x="14.5" y="234" width="306" height="213" as="geometry" />
        </mxCell>
        <mxCell id="YzlUCKDvJ0SM6VqGRy29-62" value="Access Modifier (Attributes)" style="swimlane;whiteSpace=wrap;html=1;fillColor=#fad9d5;strokeColor=#ae4132;" parent="1" vertex="1">
          <mxGeometry x="1946" y="-858" width="443" height="269" as="geometry" />
        </mxCell>
        <mxCell id="YzlUCKDvJ0SM6VqGRy29-63" value="&lt;div style=&quot;&quot;&gt;&lt;div&gt;public : anywhere&lt;/div&gt;&lt;div&gt;private : only within the class&lt;/div&gt;&lt;div&gt;protected :&lt;/div&gt;&lt;div&gt;&lt;span style=&quot;white-space: pre;&quot;&gt;&#x9;&lt;/span&gt;1. within the same package&lt;/div&gt;&lt;div&gt;&lt;span style=&quot;white-space: pre;&quot;&gt;&#x9;&lt;/span&gt;2. outside the package in a child class via child class object&lt;/div&gt;&lt;div&gt;/default : within the same package&lt;/div&gt;&lt;/div&gt;" style="text;html=1;align=left;verticalAlign=middle;resizable=0;points=[];autosize=1;strokeColor=none;fillColor=none;" parent="YzlUCKDvJ0SM6VqGRy29-62" vertex="1">
          <mxGeometry x="11" y="33" width="360" height="98" as="geometry" />
        </mxCell>
        <mxCell id="YzlUCKDvJ0SM6VqGRy29-67" style="edgeStyle=orthogonalEdgeStyle;rounded=0;orthogonalLoop=1;jettySize=auto;html=1;" parent="1" source="YzlUCKDvJ0SM6VqGRy29-64" target="YzlUCKDvJ0SM6VqGRy29-66" edge="1">
          <mxGeometry relative="1" as="geometry" />
        </mxCell>
        <mxCell id="YzlUCKDvJ0SM6VqGRy29-64" value="&lt;p style=&quot;line-height: 142%;&quot;&gt;&lt;font data-font-src=&quot;https://fonts.googleapis.com/css?family=Roboto&quot; face=&quot;Roboto&quot; style=&quot;font-size: 15px;&quot;&gt;Constructor&lt;/font&gt;&lt;/p&gt;" style="rounded=1;whiteSpace=wrap;html=1;shadow=1;treeFolding=1;movable=1;resizable=1;rotatable=1;deletable=1;editable=1;locked=0;connectable=1;strokeColor=none;fillColor=#CCFFFF;" parent="1" vertex="1">
          <mxGeometry x="1698.5" y="-332" width="129" height="39" as="geometry" />
        </mxCell>
        <mxCell id="YzlUCKDvJ0SM6VqGRy29-66" value="&lt;ul&gt;&lt;li&gt;Used for object initialisation&lt;/li&gt;&lt;li&gt;All class have their own &lt;b&gt;default&lt;/b&gt; &lt;b&gt;constructor&lt;/b&gt;.&lt;/li&gt;&lt;ul&gt;&lt;li&gt;This will &lt;b style=&quot;background-color: initial;&quot;&gt;initialise&lt;/b&gt;&lt;span style=&quot;background-color: initial;&quot;&gt;&amp;nbsp;all the variable with some default values&lt;/span&gt;&lt;/li&gt;&lt;/ul&gt;&lt;li&gt;constructor &lt;b&gt;name will be same&lt;/b&gt; as of class name&lt;/li&gt;&lt;li&gt;constructor&amp;nbsp;with no params will &lt;b&gt;replace&lt;/b&gt; default constructor&lt;/li&gt;&lt;/ul&gt;" style="text;html=1;align=left;verticalAlign=middle;resizable=0;points=[];autosize=1;strokeColor=#666666;fillColor=none;fontColor=#333333;" parent="1" vertex="1">
          <mxGeometry x="1559" y="-257" width="408" height="108" as="geometry" />
        </mxCell>
        <mxCell id="YzlUCKDvJ0SM6VqGRy29-71" style="edgeStyle=orthogonalEdgeStyle;rounded=0;orthogonalLoop=1;jettySize=auto;html=1;" parent="1" source="YzlUCKDvJ0SM6VqGRy29-68" target="YzlUCKDvJ0SM6VqGRy29-70" edge="1">
          <mxGeometry relative="1" as="geometry" />
        </mxCell>
        <mxCell id="YzlUCKDvJ0SM6VqGRy29-68" value="&lt;p style=&quot;line-height: 142%;&quot;&gt;&lt;font data-font-src=&quot;https://fonts.googleapis.com/css?family=Roboto&quot; face=&quot;Roboto&quot; style=&quot;font-size: 15px;&quot;&gt;Destructor&lt;/font&gt;&lt;/p&gt;" style="rounded=1;whiteSpace=wrap;html=1;shadow=1;treeFolding=1;movable=1;resizable=1;rotatable=1;deletable=1;editable=1;locked=0;connectable=1;strokeColor=none;fillColor=#CCFFFF;" parent="1" vertex="1">
          <mxGeometry x="2047" y="-332" width="129" height="39" as="geometry" />
        </mxCell>
        <mxCell id="YzlUCKDvJ0SM6VqGRy29-70" value="&lt;ul&gt;&lt;li&gt;Function to free up the memory&lt;/li&gt;&lt;/ul&gt;" style="text;html=1;align=left;verticalAlign=middle;resizable=0;points=[];autosize=1;strokeColor=#666666;fillColor=none;fontColor=#333333;" parent="1" vertex="1">
          <mxGeometry x="1999" y="-257" width="225" height="50" as="geometry" />
        </mxCell>
        <mxCell id="YzlUCKDvJ0SM6VqGRy29-72" value="Inheritance" style="swimlane;whiteSpace=wrap;html=1;fillColor=#b1ddf0;strokeColor=#10739e;" parent="1" vertex="1">
          <mxGeometry x="1216" y="557" width="687" height="837" as="geometry" />
        </mxCell>
        <mxCell id="YzlUCKDvJ0SM6VqGRy29-98" value="" style="group" parent="YzlUCKDvJ0SM6VqGRy29-72" vertex="1" connectable="0">
          <mxGeometry x="19.999999999999545" y="41" width="632.0000000000005" height="542" as="geometry" />
        </mxCell>
        <mxCell id="YzlUCKDvJ0SM6VqGRy29-76" value="Animal" style="rounded=1;whiteSpace=wrap;html=1;fillColor=#d5e8d4;strokeColor=#82b366;" parent="YzlUCKDvJ0SM6VqGRy29-98" vertex="1">
          <mxGeometry x="392.00000000000045" y="50" width="120" height="60" as="geometry" />
        </mxCell>
        <mxCell id="YzlUCKDvJ0SM6VqGRy29-77" value="Mammal" style="rounded=1;whiteSpace=wrap;html=1;fillColor=#d5e8d4;strokeColor=#82b366;" parent="YzlUCKDvJ0SM6VqGRy29-98" vertex="1">
          <mxGeometry x="209.00000000000045" y="196" width="120" height="60" as="geometry" />
        </mxCell>
        <mxCell id="YzlUCKDvJ0SM6VqGRy29-78" value="" style="edgeStyle=orthogonalEdgeStyle;rounded=0;orthogonalLoop=1;jettySize=auto;html=1;" parent="YzlUCKDvJ0SM6VqGRy29-98" source="YzlUCKDvJ0SM6VqGRy29-76" target="YzlUCKDvJ0SM6VqGRy29-77" edge="1">
          <mxGeometry relative="1" as="geometry">
            <Array as="points">
              <mxPoint x="452.00000000000045" y="156" />
              <mxPoint x="269.00000000000045" y="156" />
            </Array>
          </mxGeometry>
        </mxCell>
        <mxCell id="YzlUCKDvJ0SM6VqGRy29-79" value="Aquatic" style="rounded=1;whiteSpace=wrap;html=1;fillColor=#d5e8d4;strokeColor=#82b366;" parent="YzlUCKDvJ0SM6VqGRy29-98" vertex="1">
          <mxGeometry x="369.00000000000045" y="196" width="120" height="60" as="geometry" />
        </mxCell>
        <mxCell id="YzlUCKDvJ0SM6VqGRy29-80" value="" style="edgeStyle=orthogonalEdgeStyle;rounded=0;orthogonalLoop=1;jettySize=auto;html=1;" parent="YzlUCKDvJ0SM6VqGRy29-98" source="YzlUCKDvJ0SM6VqGRy29-76" target="YzlUCKDvJ0SM6VqGRy29-79" edge="1">
          <mxGeometry relative="1" as="geometry">
            <Array as="points">
              <mxPoint x="452.00000000000045" y="156" />
              <mxPoint x="411.00000000000045" y="156" />
            </Array>
          </mxGeometry>
        </mxCell>
        <mxCell id="YzlUCKDvJ0SM6VqGRy29-81" value="" style="edgeStyle=orthogonalEdgeStyle;rounded=0;orthogonalLoop=1;jettySize=auto;html=1;" parent="YzlUCKDvJ0SM6VqGRy29-98" source="YzlUCKDvJ0SM6VqGRy29-76" target="YzlUCKDvJ0SM6VqGRy29-79" edge="1">
          <mxGeometry relative="1" as="geometry">
            <Array as="points">
              <mxPoint x="452.00000000000045" y="156" />
              <mxPoint x="411.00000000000045" y="156" />
            </Array>
          </mxGeometry>
        </mxCell>
        <mxCell id="YzlUCKDvJ0SM6VqGRy29-82" value="" style="edgeStyle=orthogonalEdgeStyle;rounded=0;orthogonalLoop=1;jettySize=auto;html=1;" parent="YzlUCKDvJ0SM6VqGRy29-98" source="YzlUCKDvJ0SM6VqGRy29-76" target="YzlUCKDvJ0SM6VqGRy29-79" edge="1">
          <mxGeometry relative="1" as="geometry">
            <Array as="points">
              <mxPoint x="452.00000000000045" y="156" />
              <mxPoint x="411.00000000000045" y="156" />
            </Array>
          </mxGeometry>
        </mxCell>
        <mxCell id="YzlUCKDvJ0SM6VqGRy29-83" value="Reptile" style="rounded=1;whiteSpace=wrap;html=1;fillColor=#d5e8d4;strokeColor=#82b366;" parent="YzlUCKDvJ0SM6VqGRy29-98" vertex="1">
          <mxGeometry x="512.0000000000005" y="196" width="120" height="60" as="geometry" />
        </mxCell>
        <mxCell id="YzlUCKDvJ0SM6VqGRy29-84" value="" style="edgeStyle=orthogonalEdgeStyle;rounded=0;orthogonalLoop=1;jettySize=auto;html=1;" parent="YzlUCKDvJ0SM6VqGRy29-98" source="YzlUCKDvJ0SM6VqGRy29-76" target="YzlUCKDvJ0SM6VqGRy29-83" edge="1">
          <mxGeometry relative="1" as="geometry">
            <Array as="points">
              <mxPoint x="452.00000000000045" y="156" />
              <mxPoint x="572.0000000000005" y="156" />
            </Array>
          </mxGeometry>
        </mxCell>
        <mxCell id="YzlUCKDvJ0SM6VqGRy29-85" value="&lt;b&gt;Generic,&lt;br&gt;will have walk()&lt;br&gt;&lt;/b&gt;" style="ellipse;shape=cloud;whiteSpace=wrap;html=1;fillColor=#f8cecc;strokeColor=#b85450;" parent="YzlUCKDvJ0SM6VqGRy29-98" vertex="1">
          <mxGeometry x="463" width="120" height="80" as="geometry" />
        </mxCell>
        <mxCell id="YzlUCKDvJ0SM6VqGRy29-86" value="Dog" style="rounded=1;whiteSpace=wrap;html=1;fillColor=#d5e8d4;strokeColor=#82b366;" parent="YzlUCKDvJ0SM6VqGRy29-98" vertex="1">
          <mxGeometry x="117.00000000000045" y="300" width="120" height="60" as="geometry" />
        </mxCell>
        <mxCell id="YzlUCKDvJ0SM6VqGRy29-87" value="" style="edgeStyle=orthogonalEdgeStyle;rounded=0;orthogonalLoop=1;jettySize=auto;html=1;" parent="YzlUCKDvJ0SM6VqGRy29-98" source="YzlUCKDvJ0SM6VqGRy29-77" target="YzlUCKDvJ0SM6VqGRy29-86" edge="1">
          <mxGeometry relative="1" as="geometry" />
        </mxCell>
        <mxCell id="YzlUCKDvJ0SM6VqGRy29-88" value="Cat" style="rounded=1;whiteSpace=wrap;html=1;fillColor=#d5e8d4;strokeColor=#82b366;" parent="YzlUCKDvJ0SM6VqGRy29-98" vertex="1">
          <mxGeometry x="261.00000000000045" y="300" width="120" height="60" as="geometry" />
        </mxCell>
        <mxCell id="YzlUCKDvJ0SM6VqGRy29-89" style="edgeStyle=orthogonalEdgeStyle;rounded=0;orthogonalLoop=1;jettySize=auto;html=1;" parent="YzlUCKDvJ0SM6VqGRy29-98" source="YzlUCKDvJ0SM6VqGRy29-77" target="YzlUCKDvJ0SM6VqGRy29-88" edge="1">
          <mxGeometry relative="1" as="geometry" />
        </mxCell>
        <mxCell id="YzlUCKDvJ0SM6VqGRy29-90" value="German spherd" style="rounded=1;whiteSpace=wrap;html=1;fillColor=#d5e8d4;strokeColor=#82b366;" parent="YzlUCKDvJ0SM6VqGRy29-98" vertex="1">
          <mxGeometry x="36.000000000000455" y="405" width="120" height="60" as="geometry" />
        </mxCell>
        <mxCell id="YzlUCKDvJ0SM6VqGRy29-91" value="" style="edgeStyle=orthogonalEdgeStyle;rounded=0;orthogonalLoop=1;jettySize=auto;html=1;" parent="YzlUCKDvJ0SM6VqGRy29-98" source="YzlUCKDvJ0SM6VqGRy29-86" target="YzlUCKDvJ0SM6VqGRy29-90" edge="1">
          <mxGeometry relative="1" as="geometry" />
        </mxCell>
        <mxCell id="YzlUCKDvJ0SM6VqGRy29-92" value="Labra" style="rounded=1;whiteSpace=wrap;html=1;fillColor=#d5e8d4;strokeColor=#82b366;" parent="YzlUCKDvJ0SM6VqGRy29-98" vertex="1">
          <mxGeometry x="171.00000000000045" y="405" width="120" height="60" as="geometry" />
        </mxCell>
        <mxCell id="YzlUCKDvJ0SM6VqGRy29-93" style="edgeStyle=orthogonalEdgeStyle;rounded=0;orthogonalLoop=1;jettySize=auto;html=1;" parent="YzlUCKDvJ0SM6VqGRy29-98" source="YzlUCKDvJ0SM6VqGRy29-86" target="YzlUCKDvJ0SM6VqGRy29-92" edge="1">
          <mxGeometry relative="1" as="geometry" />
        </mxCell>
        <mxCell id="YzlUCKDvJ0SM6VqGRy29-94" value="&lt;b&gt;Specific&lt;/b&gt;" style="ellipse;shape=cloud;whiteSpace=wrap;html=1;fillColor=#f8cecc;strokeColor=#b85450;" parent="YzlUCKDvJ0SM6VqGRy29-98" vertex="1">
          <mxGeometry y="437" width="120" height="80" as="geometry" />
        </mxCell>
        <mxCell id="YzlUCKDvJ0SM6VqGRy29-95" value="&lt;b&gt;Will have bark()&lt;/b&gt;" style="ellipse;shape=cloud;whiteSpace=wrap;html=1;fillColor=#f8cecc;strokeColor=#b85450;" parent="YzlUCKDvJ0SM6VqGRy29-98" vertex="1">
          <mxGeometry x="51" y="256" width="120" height="80" as="geometry" />
        </mxCell>
        <mxCell id="YzlUCKDvJ0SM6VqGRy29-96" value="Because :&lt;br&gt;1. Animal has walk(), then german spherd can also walk&lt;br&gt;2. Because dog has bark(), the german spherd can also bark" style="text;html=1;align=left;verticalAlign=middle;resizable=0;points=[];autosize=1;strokeColor=#666666;fillColor=default;fontColor=#333333;" parent="YzlUCKDvJ0SM6VqGRy29-98" vertex="1">
          <mxGeometry x="126.00000000000045" y="487" width="341" height="55" as="geometry" />
        </mxCell>
        <mxCell id="YzlUCKDvJ0SM6VqGRy29-97" value="&lt;b&gt;Code &lt;br&gt;reusability&lt;/b&gt;" style="ellipse;shape=cloud;whiteSpace=wrap;html=1;fillColor=#f8cecc;strokeColor=#b85450;" parent="YzlUCKDvJ0SM6VqGRy29-98" vertex="1">
          <mxGeometry x="398" y="440" width="120" height="80" as="geometry" />
        </mxCell>
        <mxCell id="YzlUCKDvJ0SM6VqGRy29-99" value="&lt;div style=&quot;text-align: left;&quot;&gt;&lt;span style=&quot;background-color: initial;&quot;&gt;Child class inherits attributes and behaviour from parent class&lt;/span&gt;&lt;/div&gt;&lt;span style=&quot;&quot;&gt;&lt;div style=&quot;text-align: left;&quot;&gt;&lt;span style=&quot;background-color: initial;&quot;&gt;&lt;span style=&quot;white-space: pre;&quot;&gt;&amp;nbsp;&amp;nbsp;&amp;nbsp;&amp;nbsp;&lt;/span&gt;&lt;/span&gt;private member are not inherited&lt;/div&gt;&lt;div style=&quot;text-align: left;&quot;&gt;child may or may not add more attribute / behaviour&lt;/div&gt;&lt;div style=&quot;text-align: left;&quot;&gt;&lt;br&gt;&lt;/div&gt;&lt;div style=&quot;text-align: left;&quot;&gt;Example:&amp;nbsp;&lt;/div&gt;&lt;div style=&quot;text-align: left;&quot;&gt;&lt;br&gt;&lt;/div&gt;&lt;div style=&quot;text-align: left;&quot;&gt;&lt;span style=&quot;white-space: pre;&quot;&gt;&#x9;&lt;/span&gt;class User {....}&lt;br style=&quot;border-color: var(--border-color); color: rgb(0, 0, 0);&quot;&gt;&lt;br style=&quot;border-color: var(--border-color); color: rgb(0, 0, 0);&quot;&gt;&lt;span style=&quot;color: rgb(0, 0, 0);&quot;&gt;&lt;span style=&quot;white-space: pre;&quot;&gt;&#x9;&lt;/span&gt;class Student extends User {.....}&lt;/span&gt;&lt;br&gt;&lt;/div&gt;&lt;/span&gt;" style="text;html=1;align=center;verticalAlign=middle;resizable=0;points=[];autosize=1;strokeColor=#666666;fillColor=none;fontColor=#333333;" parent="YzlUCKDvJ0SM6VqGRy29-72" vertex="1">
          <mxGeometry x="146" y="590" width="346" height="142" as="geometry" />
        </mxCell>
        <mxCell id="YzlUCKDvJ0SM6VqGRy29-101" value="Until explicitly called, constructor with parameter will never called.&lt;br&gt;&lt;span style=&quot;white-space: pre;&quot;&gt;&#x9;&lt;/span&gt;this(_,_,_...) =&amp;gt; help to call the corresponding constructor of same class&lt;br&gt;&lt;span style=&quot;white-space: pre;&quot;&gt;&#x9;&lt;/span&gt;super(_,_,_..._ =&amp;gt; helps to call the parent class constructor" style="text;html=1;align=left;verticalAlign=middle;resizable=0;points=[];autosize=1;strokeColor=none;fillColor=none;" parent="YzlUCKDvJ0SM6VqGRy29-72" vertex="1">
          <mxGeometry x="65" y="742" width="425" height="55" as="geometry" />
        </mxCell>
        <mxCell id="YzlUCKDvJ0SM6VqGRy29-102" value="Polymorphism" style="swimlane;whiteSpace=wrap;html=1;fillColor=#b1ddf0;strokeColor=#10739e;" parent="1" vertex="1">
          <mxGeometry x="1945" y="557" width="406" height="362" as="geometry" />
        </mxCell>
        <mxCell id="YzlUCKDvJ0SM6VqGRy29-103" value="&lt;b&gt;Poly&lt;/b&gt; = Many&lt;br&gt;&lt;b&gt;Morphism&lt;/b&gt; = Forms&lt;br&gt;&lt;br&gt;" style="text;html=1;align=left;verticalAlign=middle;resizable=0;points=[];autosize=1;strokeColor=none;fillColor=none;" parent="YzlUCKDvJ0SM6VqGRy29-102" vertex="1">
          <mxGeometry x="35" y="51" width="123" height="55" as="geometry" />
        </mxCell>
        <mxCell id="YzlUCKDvJ0SM6VqGRy29-104" value="User" style="rounded=1;whiteSpace=wrap;html=1;fillColor=#fff2cc;strokeColor=#d6b656;" parent="YzlUCKDvJ0SM6VqGRy29-102" vertex="1">
          <mxGeometry x="148" y="90" width="120" height="27" as="geometry" />
        </mxCell>
        <mxCell id="YzlUCKDvJ0SM6VqGRy29-105" value="Student" style="rounded=1;whiteSpace=wrap;html=1;fillColor=#fff2cc;strokeColor=#d6b656;" parent="YzlUCKDvJ0SM6VqGRy29-102" vertex="1">
          <mxGeometry x="10" y="151" width="120" height="27" as="geometry" />
        </mxCell>
        <mxCell id="YzlUCKDvJ0SM6VqGRy29-108" style="edgeStyle=orthogonalEdgeStyle;rounded=0;orthogonalLoop=1;jettySize=auto;html=1;" parent="YzlUCKDvJ0SM6VqGRy29-102" source="YzlUCKDvJ0SM6VqGRy29-104" target="YzlUCKDvJ0SM6VqGRy29-105" edge="1">
          <mxGeometry relative="1" as="geometry">
            <Array as="points">
              <mxPoint x="208" y="128" />
              <mxPoint x="70" y="128" />
            </Array>
          </mxGeometry>
        </mxCell>
        <mxCell id="YzlUCKDvJ0SM6VqGRy29-106" value="Mentor" style="rounded=1;whiteSpace=wrap;html=1;fillColor=#fff2cc;strokeColor=#d6b656;" parent="YzlUCKDvJ0SM6VqGRy29-102" vertex="1">
          <mxGeometry x="148" y="151" width="120" height="27" as="geometry" />
        </mxCell>
        <mxCell id="YzlUCKDvJ0SM6VqGRy29-109" style="edgeStyle=orthogonalEdgeStyle;rounded=0;orthogonalLoop=1;jettySize=auto;html=1;" parent="YzlUCKDvJ0SM6VqGRy29-102" source="YzlUCKDvJ0SM6VqGRy29-104" target="YzlUCKDvJ0SM6VqGRy29-106" edge="1">
          <mxGeometry relative="1" as="geometry" />
        </mxCell>
        <mxCell id="YzlUCKDvJ0SM6VqGRy29-107" value="TA" style="rounded=1;whiteSpace=wrap;html=1;fillColor=#fff2cc;strokeColor=#d6b656;" parent="YzlUCKDvJ0SM6VqGRy29-102" vertex="1">
          <mxGeometry x="286" y="151" width="120" height="27" as="geometry" />
        </mxCell>
        <mxCell id="YzlUCKDvJ0SM6VqGRy29-110" style="edgeStyle=orthogonalEdgeStyle;rounded=0;orthogonalLoop=1;jettySize=auto;html=1;" parent="YzlUCKDvJ0SM6VqGRy29-102" source="YzlUCKDvJ0SM6VqGRy29-104" target="YzlUCKDvJ0SM6VqGRy29-107" edge="1">
          <mxGeometry relative="1" as="geometry">
            <Array as="points">
              <mxPoint x="208" y="128" />
              <mxPoint x="346" y="128" />
            </Array>
          </mxGeometry>
        </mxCell>
        <mxCell id="YzlUCKDvJ0SM6VqGRy29-111" value="&lt;b&gt;Polymorphism&lt;br&gt;of User class&lt;br&gt;&lt;/b&gt;" style="ellipse;shape=cloud;whiteSpace=wrap;html=1;fillColor=#f8cecc;strokeColor=#b85450;" parent="YzlUCKDvJ0SM6VqGRy29-102" vertex="1">
          <mxGeometry x="228.99999999999955" y="41" width="120" height="80" as="geometry" />
        </mxCell>
        <mxCell id="YzlUCKDvJ0SM6VqGRy29-112" value="&lt;div style=&quot;&quot;&gt;&lt;span style=&quot;background-color: initial;&quot;&gt;printUserNames (List&amp;lt;User&amp;gt; users) {.....}&lt;/span&gt;&lt;/div&gt;&lt;div style=&quot;&quot;&gt;&lt;span style=&quot;background-color: initial;&quot;&gt;&lt;span style=&quot;&quot;&gt;&lt;span style=&quot;white-space: pre;&quot;&gt;&amp;nbsp;&amp;nbsp;&amp;nbsp;&amp;nbsp;&lt;/span&gt;&lt;/span&gt;this can be used as&lt;/span&gt;&lt;/div&gt;&lt;span style=&quot;&quot;&gt;&lt;span style=&quot;white-space: pre;&quot;&gt;&amp;nbsp;&amp;nbsp;&amp;nbsp;&amp;nbsp;&lt;/span&gt;&lt;span style=&quot;&quot;&gt;&lt;span style=&quot;white-space: pre;&quot;&gt;&amp;nbsp;&amp;nbsp;&amp;nbsp;&amp;nbsp;&lt;/span&gt;&lt;/span&gt;&lt;/span&gt;printUserNames(students)&lt;br&gt;&lt;span style=&quot;&quot;&gt;&lt;span style=&quot;white-space: pre;&quot;&gt;&amp;nbsp;&amp;nbsp;&amp;nbsp;&amp;nbsp;&lt;/span&gt;&lt;/span&gt;&lt;span style=&quot;&quot;&gt;&lt;span style=&quot;white-space: pre;&quot;&gt;&amp;nbsp;&amp;nbsp;&amp;nbsp;&amp;nbsp;&lt;/span&gt;&lt;/span&gt;printUserNames(mentors)&lt;br&gt;" style="text;html=1;align=left;verticalAlign=middle;resizable=0;points=[];autosize=1;strokeColor=none;fillColor=none;" parent="YzlUCKDvJ0SM6VqGRy29-102" vertex="1">
          <mxGeometry x="10" y="204" width="235" height="70" as="geometry" />
        </mxCell>
        <mxCell id="YzlUCKDvJ0SM6VqGRy29-113" value="Dog d = new Dog();&lt;br&gt;Animal dog = new Dog();" style="text;html=1;align=left;verticalAlign=middle;resizable=0;points=[];autosize=1;strokeColor=none;fillColor=none;" parent="YzlUCKDvJ0SM6VqGRy29-102" vertex="1">
          <mxGeometry x="10" y="281" width="150" height="41" as="geometry" />
        </mxCell>
        <mxCell id="YzlUCKDvJ0SM6VqGRy29-114" value="Dog a = new Animal();&lt;font color=&quot;#ff0000&quot;&gt; &amp;lt;= This will not work&lt;/font&gt;" style="text;html=1;align=center;verticalAlign=middle;resizable=0;points=[];autosize=1;strokeColor=none;fillColor=none;" parent="YzlUCKDvJ0SM6VqGRy29-102" vertex="1">
          <mxGeometry x="10" y="336" width="248" height="26" as="geometry" />
        </mxCell>
        <mxCell id="YzlUCKDvJ0SM6VqGRy29-115" value="Method Overloading" style="swimlane;whiteSpace=wrap;html=1;fillColor=#fad9d5;strokeColor=#ae4132;" parent="1" vertex="1">
          <mxGeometry x="1677" y="-121" width="480" height="355" as="geometry" />
        </mxCell>
        <mxCell id="YzlUCKDvJ0SM6VqGRy29-116" value="Example :&amp;nbsp;&lt;br&gt;class A {&lt;br&gt;&lt;br&gt;&lt;span style=&quot;white-space: pre;&quot;&gt;&#x9;&lt;/span&gt;void hello() {...}&lt;br&gt;&lt;span style=&quot;white-space: pre;&quot;&gt;&#x9;&lt;/span&gt;void hello(String str) {...}&lt;br&gt;&lt;br&gt;}" style="text;html=1;align=left;verticalAlign=middle;resizable=0;points=[];autosize=1;strokeColor=none;fillColor=none;" parent="YzlUCKDvJ0SM6VqGRy29-115" vertex="1">
          <mxGeometry x="13.5" y="22" width="173" height="113" as="geometry" />
        </mxCell>
        <mxCell id="YzlUCKDvJ0SM6VqGRy29-117" value="Correct declaration" style="swimlane;horizontal=0;whiteSpace=wrap;html=1;fillColor=#d5e8d4;strokeColor=#82b366;" parent="YzlUCKDvJ0SM6VqGRy29-115" vertex="1">
          <mxGeometry x="7" y="143" width="200" height="200" as="geometry" />
        </mxCell>
        <mxCell id="YzlUCKDvJ0SM6VqGRy29-119" value="&lt;div style=&quot;&quot;&gt;&lt;span style=&quot;background-color: initial;&quot;&gt;void print (int)&lt;/span&gt;&lt;/div&gt;&lt;div style=&quot;&quot;&gt;&lt;span style=&quot;background-color: initial;&quot;&gt;void print (double)&lt;/span&gt;&lt;/div&gt;" style="text;html=1;align=left;verticalAlign=middle;resizable=0;points=[];autosize=1;strokeColor=#666666;fillColor=none;fontColor=#333333;" parent="YzlUCKDvJ0SM6VqGRy29-117" vertex="1">
          <mxGeometry x="31" y="13" width="114" height="41" as="geometry" />
        </mxCell>
        <mxCell id="YzlUCKDvJ0SM6VqGRy29-120" value="&lt;div style=&quot;&quot;&gt;&lt;span style=&quot;background-color: initial;&quot;&gt;void print (string)&lt;/span&gt;&lt;/div&gt;&lt;div style=&quot;&quot;&gt;void print (string, string&lt;span style=&quot;background-color: initial;&quot;&gt;)&lt;/span&gt;&lt;/div&gt;" style="text;html=1;align=left;verticalAlign=middle;resizable=0;points=[];autosize=1;strokeColor=#666666;fillColor=none;fontColor=#333333;" parent="YzlUCKDvJ0SM6VqGRy29-117" vertex="1">
          <mxGeometry x="31" y="63" width="143" height="41" as="geometry" />
        </mxCell>
        <mxCell id="YzlUCKDvJ0SM6VqGRy29-121" value="&lt;div style=&quot;&quot;&gt;&lt;span style=&quot;background-color: initial;&quot;&gt;void print (int, string)&lt;/span&gt;&lt;/div&gt;&lt;div style=&quot;&quot;&gt;int print (string, int&lt;span style=&quot;background-color: initial;&quot;&gt;)&lt;/span&gt;&lt;/div&gt;" style="text;html=1;align=left;verticalAlign=middle;resizable=0;points=[];autosize=1;strokeColor=#666666;fillColor=none;fontColor=#333333;" parent="YzlUCKDvJ0SM6VqGRy29-117" vertex="1">
          <mxGeometry x="31" y="113" width="127" height="41" as="geometry" />
        </mxCell>
        <mxCell id="YzlUCKDvJ0SM6VqGRy29-122" value="Incorrect declaration" style="swimlane;horizontal=0;whiteSpace=wrap;html=1;fillColor=#fff2cc;strokeColor=#d6b656;" parent="YzlUCKDvJ0SM6VqGRy29-115" vertex="1">
          <mxGeometry x="212" y="143" width="251" height="200" as="geometry" />
        </mxCell>
        <mxCell id="YzlUCKDvJ0SM6VqGRy29-123" value="&lt;div style=&quot;&quot;&gt;&lt;span style=&quot;background-color: initial;&quot;&gt;void print (String A)&lt;/span&gt;&lt;/div&gt;&lt;div style=&quot;&quot;&gt;&lt;span style=&quot;background-color: initial;&quot;&gt;void print (String B)&lt;/span&gt;&lt;/div&gt;" style="text;html=1;align=left;verticalAlign=middle;resizable=0;points=[];autosize=1;strokeColor=#666666;fillColor=none;fontColor=#333333;" parent="YzlUCKDvJ0SM6VqGRy29-122" vertex="1">
          <mxGeometry x="31" y="13" width="121" height="41" as="geometry" />
        </mxCell>
        <mxCell id="YzlUCKDvJ0SM6VqGRy29-126" value="&lt;div style=&quot;&quot;&gt;&lt;span style=&quot;background-color: initial;&quot;&gt;void print (String A)&lt;/span&gt;&lt;/div&gt;&lt;div style=&quot;&quot;&gt;&lt;span style=&quot;background-color: initial;&quot;&gt;int print (String B)&lt;/span&gt;&lt;/div&gt;" style="text;html=1;align=left;verticalAlign=middle;resizable=0;points=[];autosize=1;strokeColor=#666666;fillColor=none;fontColor=#333333;" parent="YzlUCKDvJ0SM6VqGRy29-122" vertex="1">
          <mxGeometry x="31" y="91" width="120" height="41" as="geometry" />
        </mxCell>
        <mxCell id="YzlUCKDvJ0SM6VqGRy29-127" value="Method cannot have same parameter" style="text;html=1;align=center;verticalAlign=middle;resizable=0;points=[];autosize=1;strokeColor=none;fillColor=none;" parent="YzlUCKDvJ0SM6VqGRy29-122" vertex="1">
          <mxGeometry x="34" y="57" width="217" height="26" as="geometry" />
        </mxCell>
        <mxCell id="YzlUCKDvJ0SM6VqGRy29-128" value="return type issue" style="text;html=1;align=center;verticalAlign=middle;resizable=0;points=[];autosize=1;strokeColor=none;fillColor=none;" parent="YzlUCKDvJ0SM6VqGRy29-122" vertex="1">
          <mxGeometry x="53" y="137" width="107" height="26" as="geometry" />
        </mxCell>
        <mxCell id="YzlUCKDvJ0SM6VqGRy29-129" value="Method Overiding" style="swimlane;whiteSpace=wrap;html=1;fillColor=#fad9d5;strokeColor=#ae4132;" parent="1" vertex="1">
          <mxGeometry x="2184" y="-120" width="480" height="355" as="geometry" />
        </mxCell>
        <mxCell id="YzlUCKDvJ0SM6VqGRy29-130" value="Example :&amp;nbsp;&lt;br&gt;class A {&lt;br&gt;&lt;span style=&quot;white-space: pre;&quot;&gt;&#x9;&lt;/span&gt;void hello() {...}&lt;br&gt;}&lt;br&gt;&lt;br&gt;class B extends A {&lt;br&gt;&lt;span style=&quot;white-space: pre;&quot;&gt;&#x9;&lt;/span&gt;void hello() {...}&lt;br&gt;}" style="text;html=1;align=left;verticalAlign=middle;resizable=0;points=[];autosize=1;strokeColor=none;fillColor=none;" parent="YzlUCKDvJ0SM6VqGRy29-129" vertex="1">
          <mxGeometry x="13.5" y="28" width="125" height="127" as="geometry" />
        </mxCell>
        <mxCell id="YzlUCKDvJ0SM6VqGRy29-140" value="&lt;b&gt;Hello() will be &lt;br&gt;over written by &lt;br&gt;child class code&lt;/b&gt;" style="ellipse;shape=cloud;whiteSpace=wrap;html=1;fillColor=#f8cecc;strokeColor=#b85450;" parent="YzlUCKDvJ0SM6VqGRy29-129" vertex="1">
          <mxGeometry x="126" y="29" width="152" height="90" as="geometry" />
        </mxCell>
        <mxCell id="YzlUCKDvJ0SM6VqGRy29-141" value="Interface" style="swimlane;whiteSpace=wrap;html=1;fillColor=#b1ddf0;strokeColor=#10739e;" parent="1" vertex="1">
          <mxGeometry x="1945" y="954" width="531" height="289" as="geometry" />
        </mxCell>
        <mxCell id="HHQ9PAFs0ymIhUQ2Prfe-6" value="" style="group" vertex="1" connectable="0" parent="YzlUCKDvJ0SM6VqGRy29-141">
          <mxGeometry x="10" y="38" width="507" height="217" as="geometry" />
        </mxCell>
        <mxCell id="YzlUCKDvJ0SM6VqGRy29-142" value="Categorising on the basis of the logical / physical relation ship" style="text;html=1;align=left;verticalAlign=middle;resizable=0;points=[];autosize=1;strokeColor=none;fillColor=none;" parent="HHQ9PAFs0ymIhUQ2Prfe-6" vertex="1">
          <mxGeometry x="21" width="346" height="26" as="geometry" />
        </mxCell>
        <mxCell id="HHQ9PAFs0ymIhUQ2Prfe-1" style="edgeStyle=orthogonalEdgeStyle;rounded=0;orthogonalLoop=1;jettySize=auto;html=1;" edge="1" parent="HHQ9PAFs0ymIhUQ2Prfe-6" source="YzlUCKDvJ0SM6VqGRy29-143" target="YzlUCKDvJ0SM6VqGRy29-144">
          <mxGeometry relative="1" as="geometry">
            <Array as="points">
              <mxPoint x="309" y="130" />
              <mxPoint x="142" y="130" />
            </Array>
          </mxGeometry>
        </mxCell>
        <mxCell id="YzlUCKDvJ0SM6VqGRy29-143" value="Beings" style="rounded=1;whiteSpace=wrap;html=1;fillColor=#dae8fc;strokeColor=#6c8ebf;" parent="HHQ9PAFs0ymIhUQ2Prfe-6" vertex="1">
          <mxGeometry x="249" y="97" width="120" height="21" as="geometry" />
        </mxCell>
        <mxCell id="HHQ9PAFs0ymIhUQ2Prfe-4" style="edgeStyle=orthogonalEdgeStyle;rounded=0;orthogonalLoop=1;jettySize=auto;html=1;" edge="1" parent="HHQ9PAFs0ymIhUQ2Prfe-6" source="YzlUCKDvJ0SM6VqGRy29-144" target="YzlUCKDvJ0SM6VqGRy29-146">
          <mxGeometry relative="1" as="geometry">
            <Array as="points">
              <mxPoint x="142" y="181" />
              <mxPoint x="60" y="181" />
            </Array>
          </mxGeometry>
        </mxCell>
        <mxCell id="HHQ9PAFs0ymIhUQ2Prfe-5" style="edgeStyle=orthogonalEdgeStyle;rounded=0;orthogonalLoop=1;jettySize=auto;html=1;entryX=0.5;entryY=0;entryDx=0;entryDy=0;" edge="1" parent="HHQ9PAFs0ymIhUQ2Prfe-6" source="YzlUCKDvJ0SM6VqGRy29-144" target="HHQ9PAFs0ymIhUQ2Prfe-3">
          <mxGeometry relative="1" as="geometry">
            <Array as="points">
              <mxPoint x="142" y="181" />
              <mxPoint x="203" y="181" />
            </Array>
          </mxGeometry>
        </mxCell>
        <mxCell id="YzlUCKDvJ0SM6VqGRy29-144" value="Living Beings" style="rounded=1;whiteSpace=wrap;html=1;fillColor=#dae8fc;strokeColor=#6c8ebf;" parent="HHQ9PAFs0ymIhUQ2Prfe-6" vertex="1">
          <mxGeometry x="82" y="148" width="120" height="21" as="geometry" />
        </mxCell>
        <mxCell id="YzlUCKDvJ0SM6VqGRy29-145" value="Non Living Beings" style="rounded=1;whiteSpace=wrap;html=1;fillColor=#dae8fc;strokeColor=#6c8ebf;" parent="HHQ9PAFs0ymIhUQ2Prfe-6" vertex="1">
          <mxGeometry x="387" y="148" width="120" height="21" as="geometry" />
        </mxCell>
        <mxCell id="YzlUCKDvJ0SM6VqGRy29-146" value="Human" style="rounded=1;whiteSpace=wrap;html=1;fillColor=#dae8fc;strokeColor=#6c8ebf;" parent="HHQ9PAFs0ymIhUQ2Prfe-6" vertex="1">
          <mxGeometry y="196" width="120" height="21" as="geometry" />
        </mxCell>
        <mxCell id="HHQ9PAFs0ymIhUQ2Prfe-2" style="edgeStyle=orthogonalEdgeStyle;rounded=0;orthogonalLoop=1;jettySize=auto;html=1;entryX=0.5;entryY=0;entryDx=0;entryDy=0;" edge="1" parent="HHQ9PAFs0ymIhUQ2Prfe-6" source="YzlUCKDvJ0SM6VqGRy29-143" target="YzlUCKDvJ0SM6VqGRy29-145">
          <mxGeometry relative="1" as="geometry">
            <Array as="points">
              <mxPoint x="309" y="130" />
              <mxPoint x="447" y="130" />
            </Array>
          </mxGeometry>
        </mxCell>
        <mxCell id="HHQ9PAFs0ymIhUQ2Prfe-3" value="Animal" style="rounded=1;whiteSpace=wrap;html=1;fillColor=#dae8fc;strokeColor=#6c8ebf;" vertex="1" parent="HHQ9PAFs0ymIhUQ2Prfe-6">
          <mxGeometry x="143" y="196" width="120" height="21" as="geometry" />
        </mxCell>
      </root>
    </mxGraphModel>
  </diagram>
</mxfile>
